<svg width="33" height="32" viewBox="0 0 33 32" fill="none" xmlns="http://www.w3.org/2000/svg">
<path fill-rule="evenodd" clip-rule="evenodd" d="M36.2509 33.1828C36.2509 24.8855 29.5247 18.1587 21.2271 18.1587C12.93 18.1587 6.20337 24.8855 6.20337 33.1828C6.20337 34.6041 6.40074 35.9794 6.76956 37.2826C6.86613 37.1955 7.00142 37.1552 7.16953 37.1642C7.49619 37.1823 7.67245 37.3772 7.6905 37.7237C7.63756 38.0341 7.46972 38.2206 7.13464 38.2296C7.11315 38.2302 7.09202 38.2295 7.07131 38.2276C9.14414 44.0438 14.6996 48.2069 21.2271 48.2069C29.5247 48.2069 36.2509 41.4806 36.2509 33.1828ZM8.75831 29.8115C8.4846 29.7845 8.28187 29.616 8.28187 29.2779C8.27284 28.9501 8.46715 28.7545 8.79381 28.7365C9.11144 28.7191 9.35868 28.9675 9.34966 29.287C9.34966 29.5895 9.12888 29.8115 8.75831 29.8115ZM12.6063 44.4199C12.9239 44.3838 13.1007 44.1882 13.1182 43.8688C13.0917 43.5409 12.9239 43.3448 12.5972 43.3274C12.2977 43.3003 12.0414 43.5758 12.0414 43.8778C12.0414 44.1882 12.3061 44.4457 12.6063 44.4199ZM15.5275 39.0372C15.2453 39.0108 15.06 38.8327 15.0336 38.5127C15.0071 38.1932 15.2628 37.9357 15.572 37.9448C15.898 37.9622 16.0833 38.1403 16.1188 38.4687C16.1453 38.7617 15.8715 39.0282 15.5275 39.0372ZM26.0569 45.5478C26.0388 45.2187 25.8361 45.0593 25.5624 45.0232C25.2093 45.0322 24.9711 45.2897 24.9885 45.6007C25.015 45.9292 25.2093 46.1156 25.5269 46.1247C25.8271 46.1331 26.0743 45.8582 26.0569 45.5478ZM25.271 30.2108C25.2446 30.5218 25.5093 30.7793 25.8185 30.7703C26.1186 30.7619 26.3924 30.4863 26.3569 30.1843C26.3123 29.8733 26.1271 29.6694 25.8004 29.6784C25.4744 29.6868 25.2891 29.8914 25.271 30.2108ZM31.1756 43.5223C31.1756 43.8243 30.9109 44.0908 30.6107 44.0638C30.2931 44.0373 30.0988 43.8604 30.0814 43.5314C30.0633 43.2294 30.328 42.9629 30.6198 42.9544C30.9109 42.9544 31.1756 43.2209 31.1756 43.5223ZM34.0881 27.1206C33.744 27.1115 33.4793 26.845 33.5142 26.543C33.5497 26.2236 33.744 26.0371 34.0706 26.0281C34.3702 26.0197 34.6439 26.312 34.609 26.6056C34.5645 26.925 34.3792 27.1031 34.0881 27.1206ZM26.7627 38.8331C26.7537 39.1351 26.48 39.4016 26.1888 39.3667C25.8802 39.3216 25.6859 39.1351 25.6949 38.7976C25.7033 38.4697 25.9067 38.2917 26.2243 38.2742C26.5329 38.2562 26.7717 38.5227 26.7627 38.8331ZM17.0102 20.477C17.0012 20.1401 16.8075 19.9801 16.5338 19.9446C16.1716 19.9355 15.925 20.1846 15.9334 20.4956C15.9514 20.8325 16.1452 21.0106 16.4634 21.028C16.772 21.0461 17.0283 20.797 17.0102 20.477ZM23.0469 21.41C22.6937 21.4191 22.429 21.1706 22.4381 20.859C22.4465 20.5311 22.6234 20.3356 22.959 20.3176C23.2676 20.3001 23.5413 20.5486 23.5233 20.859C23.5059 21.179 23.3115 21.3571 23.0469 21.41ZM28.7572 24.5896C28.7217 24.2611 28.519 24.1017 28.2453 24.0837C27.8831 24.0927 27.6449 24.3411 27.6804 24.6702C27.7069 24.9896 27.9012 25.1761 28.2278 25.1761C28.519 25.1761 28.7837 24.8832 28.7572 24.5896ZM20.5316 34.1708C20.5316 34.5342 20.2844 34.7838 19.9758 34.7658C19.6491 34.7477 19.4723 34.5528 19.4638 34.2238C19.4548 33.9133 19.7111 33.6559 20.0197 33.6823C20.3463 33.7088 20.5052 33.9043 20.5316 34.1708ZM31.5553 31.3121C31.5727 31.6406 31.7755 31.8006 32.0582 31.8271C32.4023 31.8187 32.6586 31.5516 32.6321 31.2586C32.5966 30.9301 32.4107 30.7526 32.0847 30.7436C31.7755 30.7352 31.5288 30.9921 31.5553 31.3121ZM19.817 27.8669C19.8434 28.1864 20.0287 28.3639 20.3109 28.3813C20.673 28.3813 20.9022 28.1328 20.8932 27.8218C20.8667 27.4849 20.6814 27.3159 20.3554 27.3069C20.0371 27.2978 19.7905 27.5643 19.817 27.8669ZM32.102 35.3347C32.1201 35.6637 32.3054 35.8412 32.5875 35.8767C32.9316 35.8947 33.2143 35.6282 33.1963 35.3256C33.1698 35.0068 32.9936 34.8113 32.6669 34.7842C32.3667 34.7668 32.0846 35.0333 32.102 35.3347ZM11.9975 34.6246C12.0324 34.944 12.2177 35.1125 12.5004 35.1305C12.8535 35.1125 13.1092 34.8375 13.0743 34.5536C13.0388 34.2245 12.8445 34.0555 12.5178 34.0555C12.2002 34.0555 11.962 34.3136 11.9975 34.6246ZM20.4259 44.7133C20.1522 44.6778 19.9585 44.5087 19.9404 44.1803C19.923 43.8518 20.1612 43.6033 20.4698 43.6208C20.788 43.6388 20.9817 43.8253 20.9998 44.1532C21.0172 44.4558 20.7616 44.7223 20.4259 44.7133ZM13.7272 27.4311C13.3831 27.4136 13.1888 27.2362 13.1798 26.9077C13.1713 26.5786 13.3476 26.3831 13.6833 26.3566C13.9919 26.3302 14.2565 26.5786 14.2481 26.8987C14.2217 27.2271 14.0274 27.3962 13.7272 27.4311Z" fill="#FFFFFF"/>
<path fill-rule="evenodd" clip-rule="evenodd" d="M38.8849 9.85843L31.9003 17.9554L13.6565 1.19292L20.6412 -6.90465L38.8849 9.85843Z" fill="#FFFFFF"/>
<path fill-rule="evenodd" clip-rule="evenodd" d="M-7.18942 14.5385C-7.39596 13.9025 -7.62448 12.9915 -7.62448 12.0656C-7.62448 11.1806 -7.41539 10.2829 -6.78145 9.59933C-5.93535 8.68879 -4.65419 8.48531 -3.42568 8.56762C-1.04689 11.2537 1.11104 14.1341 3.01285 17.173C3.33597 17.6897 3.66032 18.2271 3.92335 18.788L-2.81013 21.6459C-4.80886 19.6636 -6.31663 17.2204 -7.18942 14.5385ZM-3.20065 21.8116C-5.18741 19.8058 -6.6877 17.3507 -7.56313 14.6607C-7.99513 13.3335 -8.50483 10.8769 -7.06928 9.33194C-6.21704 8.41425 -4.99519 8.1392 -3.7902 8.15913C-6.1288 5.56207 -8.67473 3.15111 -11.3951 0.958841L-13.6444 1.91354C-13.6854 1.93096 -13.7046 1.97836 -13.6872 2.01941L-5.00048 22.4878C-4.98306 22.5289 -4.93565 22.548 -4.8946 22.5306L-3.20065 21.8116ZM4.28605 18.6341L7.14528 17.4205C6.20673 15.8333 5.4705 13.9752 4.97549 11.903C2.92491 10.4506 0.601848 9.38 -1.87203 8.80689C-2.1798 8.73531 -2.51006 8.67192 -2.85003 8.62642C-0.567864 11.2374 1.50827 14.0267 3.34617 16.9644C3.67924 17.4966 4.01367 18.0509 4.28605 18.6341ZM9.56081 16.3953L7.51405 17.264C6.4839 15.5169 5.85319 13.6895 5.47701 12.2701C7.02606 13.4408 8.40621 14.8336 9.56081 16.3953ZM9.93246 16.2376L15.5738 13.8432C15.6149 13.8258 15.634 13.7784 15.6166 13.7374L11.0992 3.09362C8.63478 0.521014 6.04336 -1.92948 3.33851 -4.24328C3.39679 -3.99225 3.45149 -3.73765 3.50261 -3.47947C3.975 -1.09858 4.15802 1.36053 4.33491 3.73784L4.33547 3.74543C4.51065 6.09943 4.69174 8.53282 5.15442 10.878C5.20146 11.1147 5.2582 11.381 5.32671 11.6719C7.08875 12.94 8.64938 14.4858 9.93246 16.2376ZM10.6721 2.08721L6.92942 -6.73106C6.912 -6.77211 6.86459 -6.79126 6.82354 -6.77384L3.09769 -5.19244C3.12484 -5.09403 3.15144 -4.99509 3.17746 -4.89563C5.78345 -2.68916 8.28554 -0.357343 10.6721 2.08721ZM2.51158 -4.94368L-10.9849 0.784754C-8.20817 3.03726 -5.61363 5.51668 -3.23653 8.18828C-2.72785 8.23173 -2.23348 8.31916 -1.78308 8.42345C0.598781 8.9756 2.84363 9.97918 4.84717 11.3366C4.82007 11.2103 4.794 11.0825 4.76895 10.9546C4.30128 8.58667 4.11915 6.14171 3.94299 3.77709L3.94228 3.7675C3.76692 1.40143 3.58492 -1.04541 3.11663 -3.4033C3.04505 -3.76526 2.94894 -4.19829 2.82266 -4.68193C2.71913 -4.76938 2.61544 -4.85663 2.51158 -4.94368Z" fill="#FFFFFF"/>
</svg>
